<svg class="foundry-logo" viewBox="0 0 1499 135">
<path d="M117.7135,68.4146 C117.0995,90.6036 135.8465,110.1706 158.3905,110.9836 C180.2955,111.7726 200.5165,93.7336 201.9115,71.9886 C203.4435,48.1026 185.2845,28.1036 162.7165,26.5376 C139.3415,24.9166 118.1665,43.0326 117.7135,68.4146 M161.2235,134.7566 C127.6745,135.8376 96.3045,110.2676 93.9585,73.8176 C91.4395,34.6846 119.9635,4.5686 156.0145,2.6146 C192.8985,0.6146 223.7135,28.2216 225.8575,64.7106 C228.1545,103.8006 197.2905,134.3716 161.2235,134.7566"></path>
<path d="M529.9302,110.4841 C537.5412,110.4841 544.9362,110.6171 552.3242,110.4561 C566.3772,110.1491 577.5152,104.1931 585.3402,92.4991 C591.9302,82.6501 593.0642,71.6431 591.4312,60.1731 C589.2902,45.1341 576.7312,31.3761 561.9892,27.9721 C551.5392,25.5591 540.9292,26.8451 530.3832,26.6651 C530.2602,26.6621 530.1332,26.8651 529.9302,27.0401 L529.9302,110.4841 Z M506.1802,68.5621 C506.1802,48.9811 506.1772,29.4011 506.1812,9.8201 C506.1822,5.1241 506.8932,4.3931 511.5052,4.4041 C526.6682,4.4411 541.8702,3.8241 556.9852,4.6971 C578.1232,5.9181 595.1892,15.6351 606.7412,33.4371 C623.3032,58.9581 620.9512,88.9971 600.7662,111.6701 C588.2562,125.7211 572.1682,132.8351 553.2282,132.9641 C539.1472,133.0601 525.0652,132.9871 510.9842,132.9801 C507.1152,132.9781 506.1862,132.0341 506.1842,128.0541 C506.1752,108.2231 506.1802,88.3931 506.1802,68.5621 L506.1802,68.5621 Z"></path>
<path d="M396.8509,50.3488 L396.8509,53.7488 C396.8509,78.2428 396.8519,102.7378 396.8499,127.2328 C396.8499,132.1478 395.9989,132.9818 391.0049,132.9828 C386.5059,132.9838 382.0069,133.0078 377.5079,132.9738 C374.3819,132.9498 373.1809,131.7418 373.0229,128.5838 C372.9899,127.9188 373.0149,127.2508 373.0149,126.5838 L373.0149,8.8598 C373.0149,3.1178 374.4879,1.7688 380.2549,2.5508 C381.1719,2.6758 382.1169,3.5158 382.8099,4.2508 C407.3159,30.2388 431.7949,56.2538 456.2709,82.2708 C456.6089,82.6298 456.8569,83.0718 457.1469,83.4758 C457.3809,83.4078 457.6149,83.3388 457.8489,83.2708 L457.8489,80.7648 C457.8489,57.1038 457.8479,33.4418 457.8499,9.7808 C457.8509,5.1558 458.6009,4.4048 463.2099,4.4018 C467.9589,4.3988 472.7089,4.3728 477.4569,4.4138 C480.3399,4.4388 481.5249,5.6288 481.6759,8.4888 C481.7069,9.0698 481.6859,9.6548 481.6859,10.2378 C481.6859,49.8128 481.6429,89.3878 481.7369,128.9628 C481.7489,134.3808 480.1069,135.1768 474.7549,134.8158 C473.8739,134.7568 472.9229,133.8038 472.2369,133.0518 C449.8989,108.5748 427.5889,84.0708 405.2739,59.5718 C402.6439,56.6848 400.0069,53.8038 396.8509,50.3488"></path>
<path d="M661.947,62.7332 C662.342,62.8572 662.495,62.9462 662.648,62.9462 C669.391,62.9632 676.133,62.9932 682.876,62.9752 C686.454,62.9662 690.058,63.1352 693.603,62.7692 C703.142,61.7842 710.274,53.2782 709.918,43.6132 C709.581,34.4662 702.096,26.8162 692.649,26.5462 C682.668,26.2612 672.674,26.4512 662.685,26.4472 C662.465,26.4472 662.244,26.6112 661.947,26.7302 L661.947,62.7332 Z M706.816,81.2682 C713.468,93.6012 720.099,105.8962 726.73,118.1912 C728.349,121.1942 729.985,124.1872 731.576,127.2032 C733.285,130.4412 731.909,132.9272 728.305,132.9642 C722.141,133.0282 715.976,132.9412 709.812,133.0042 C707.713,133.0262 706.73,131.8862 705.878,130.1772 C698.424,115.2152 690.882,100.2962 683.469,85.3142 C682.456,83.2682 681.307,82.4192 678.94,82.5032 C673.304,82.7022 667.656,82.5672 661.686,82.5672 L661.686,85.7762 C661.686,99.6042 661.69,113.4332 661.683,127.2612 C661.681,132.1062 660.809,132.9812 656.054,132.9832 C651.389,132.9842 646.724,133.0122 642.059,132.9722 C638.996,132.9462 637.857,131.7932 637.857,128.7172 C637.846,88.7312 637.847,48.7442 637.855,8.7582 C637.856,5.4642 638.882,4.4102 642.172,4.4112 C660.332,4.4192 678.494,4.2662 696.65,4.5332 C718.154,4.8492 736.405,26.4942 733.651,47.8212 C731.754,62.5212 723.371,72.2982 710.726,79.0142 C709.625,79.5992 708.482,80.1042 707.366,80.6622 C707.23,80.7312 707.144,80.9002 706.816,81.2682 L706.816,81.2682 Z"></path>
<path d="M245.1799,48.9776 C245.1799,35.8996 245.1759,22.8216 245.1819,9.7436 C245.1839,5.2036 246.0019,4.4056 250.6089,4.4016 C255.1909,4.3986 259.7719,4.3966 264.3539,4.4026 C268.5679,4.4086 269.5149,5.3376 269.5149,9.4936 C269.5179,33.4846 269.5059,57.4756 269.5239,81.4656 C269.5279,87.8046 270.5679,93.8856 274.1909,99.2986 C280.6889,109.0086 292.2969,113.1436 304.0869,109.9106 C314.3729,107.0896 322.3099,97.0026 322.9229,85.9466 C322.9969,84.6176 323.0109,83.2836 323.0109,81.9516 C323.0159,57.8776 323.0129,33.8036 323.0169,9.7296 C323.0169,5.3956 323.9889,4.4096 328.2479,4.4026 C333.0789,4.3956 337.9109,4.3876 342.7419,4.4066 C346.2469,4.4196 347.5029,5.5656 347.5029,8.9626 C347.4979,34.5346 347.7769,60.1126 347.3449,85.6786 C346.8909,112.5166 325.6899,133.7236 298.8109,134.6946 C278.2359,135.4376 262.4159,126.8456 251.7199,109.2696 C246.9439,101.4226 245.1529,92.6326 245.1739,83.4636 C245.1999,71.9686 245.1799,60.4726 245.1799,48.9776"></path>
<path d="M24.1861,82.9832 L24.1861,86.1462 C24.1861,100.0622 24.1911,113.9792 24.1831,127.8952 C24.1811,132.0852 23.2621,132.9762 19.0051,132.9822 C14.5051,132.9872 10.0061,132.9882 5.5061,132.9812 C1.3711,132.9752 0.3541,131.9742 0.3531,127.8222 C0.3461,100.1562 0.3491,72.4912 0.3491,44.8252 C0.3491,33.0752 0.3421,21.3262 0.3531,9.5762 C0.3571,5.3562 1.2961,4.4052 5.4511,4.4042 C29.3671,4.3982 53.2831,4.3982 77.1991,4.4052 C80.9671,4.4062 82.1241,5.5172 82.1721,9.2932 C82.2241,13.4592 82.2351,17.6262 82.1661,21.7922 C82.1101,25.2512 80.8991,26.3932 77.4261,26.3952 C60.7601,26.4072 44.0941,26.4012 27.4281,26.4012 L24.3411,26.4012 L24.3411,60.9832 L26.9381,60.9832 C40.6871,60.9832 54.4371,60.9792 68.1861,60.9862 C71.9221,60.9872 73.1261,62.1382 73.1721,65.8832 C73.2241,70.0492 73.2411,74.2172 73.1641,78.3822 C73.1001,81.8522 71.8921,82.9762 68.4221,82.9782 C54.6731,82.9892 40.9231,82.9832 27.1741,82.9832 L24.1861,82.9832 Z"></path>
<path d="M797.9178,48.2079 C804.2048,39.1789 810.2878,30.4479 816.3658,21.7129 C819.7888,16.7939 823.2668,11.9109 826.5928,6.9269 C827.8458,5.0499 829.3498,4.3159 831.5838,4.3639 C836.9958,4.4789 842.4118,4.4049 847.8268,4.3999 C849.5048,4.3979 851.2508,4.2589 852.1948,6.0819 C853.1458,7.9159 852.2968,9.4069 851.2538,10.9089 C837.8148,30.2559 824.3778,49.6039 811.0178,69.0049 C810.2348,70.1419 809.7478,71.7329 809.7418,73.1159 C809.6578,91.1089 809.6888,109.1019 809.6848,127.0959 C809.6828,132.2149 808.8978,132.9829 803.7218,132.9829 C799.3068,132.9839 794.8918,132.9969 790.4768,132.9789 C786.9008,132.9639 785.8548,131.9299 785.8538,128.3849 C785.8448,110.2249 785.8908,92.0649 785.7798,73.9059 C785.7698,72.2179 785.1568,70.2879 784.2078,68.8859 C771.0968,49.5189 757.8768,30.2259 744.6888,10.9109 C744.3138,10.3629 743.9128,9.8109 743.6598,9.2039 C742.6508,6.7899 743.9908,4.4939 746.6178,4.4529 C752.8638,4.3559 759.1228,4.2269 765.3518,4.5629 C766.8038,4.6409 768.5398,6.2469 769.4998,7.6059 C778.4858,20.3149 787.3308,33.1239 796.2198,45.9019 C796.6918,46.5799 797.1988,47.2339 797.9178,48.2079"></path>
<path d="M1344.23838,65.3993115 C1343.29438,39.9753115 1321.85838,22.1773115 1298.34638,24.0793115 C1275.89138,25.8963115 1258.49238,46.4613115 1259.92438,69.0423115 C1261.31738,91.0133115 1281.00638,109.609311 1303.72438,108.407311 C1327.46038,107.152311 1344.85038,87.2683115 1344.23838,65.3993115 M1368.10938,66.5413115 C1368.08238,103.101311 1338.22738,132.754311 1301.87538,132.408311 C1266.40838,132.070311 1235.87638,104.850311 1236.00038,66.2763115 C1236.12138,28.9283115 1265.27238,-0.109688518 1302.02838,0.000311482255 C1339.00538,0.112311482 1368.13638,29.4453115 1368.10938,66.5413115"></path>
<path d="M1474.58413,81.212543 L1474.58413,78.084543 L1474.58413,8.34154304 C1474.58413,2.55554304 1475.16813,1.98154304 1481.05413,1.98154304 C1485.30313,1.98054304 1489.55313,1.96454304 1493.80313,1.98654304 C1497.35413,2.00454304 1498.56113,3.21154304 1498.57613,6.82354304 C1498.60313,13.488543 1498.58413,20.154543 1498.58413,26.820543 C1498.58413,60.150543 1498.58313,93.479543 1498.58813,126.809543 C1498.58813,128.917543 1498.75413,131.069543 1496.27513,132.085543 C1493.71913,133.133543 1490.70213,132.476543 1488.88613,130.482543 C1464.38513,103.578543 1439.88013,76.676543 1415.38513,49.766543 C1414.94913,49.287543 1414.61413,48.717543 1414.23213,48.190543 C1414.01613,48.281543 1413.80013,48.373543 1413.58413,48.464543 L1413.58413,51.068543 C1413.58413,75.898543 1413.58513,100.728543 1413.58313,125.559543 C1413.58213,129.562543 1412.58913,130.553543 1408.56513,130.561543 C1403.89913,130.569543 1399.23313,130.579543 1394.56713,130.557543 C1391.17813,130.541543 1390.00713,129.416543 1390.00713,126.110543 C1389.99713,85.532543 1389.99813,44.953543 1390.00713,4.37454304 C1390.00813,1.26054304 1391.09513,0.291543041 1394.17313,0.034543041 C1396.75813,-0.181456959 1398.59213,0.609543041 1400.43213,2.57654304 C1424.44213,28.241543 1448.55013,53.813543 1472.63913,79.404543 C1473.12713,79.922543 1473.68113,80.377543 1474.58413,81.212543"></path>
<path d="M1092.60574,86.5328721 C1086.40074,72.8968721 1080.34074,59.5808721 1073.98274,45.6098721 C1067.71774,59.6808721 1061.78974,72.9948721 1055.76174,86.5328721 L1092.60574,86.5328721 Z M1123.81674,130.532872 C1121.56774,130.532872 1119.30974,130.407872 1117.07174,130.562872 C1113.63874,130.799872 1111.65274,129.116872 1110.33174,126.146872 C1107.79774,120.448872 1105.08574,114.827872 1102.63174,109.095872 C1101.91474,107.421872 1101.01274,106.990872 1099.29874,106.996872 C1082.55474,107.057872 1065.81074,107.066872 1049.06674,106.986872 C1047.17774,106.977872 1046.32274,107.622872 1045.60074,109.305872 C1043.14174,115.035872 1040.44174,120.661872 1037.95574,126.379872 C1036.65474,129.369872 1034.52974,130.637872 1031.30774,130.560872 C1026.72874,130.451872 1022.14474,130.543872 1017.56274,130.529872 C1013.24074,130.517872 1011.98874,128.582872 1013.80874,124.637872 C1026.17674,97.8358721 1038.55974,71.0408721 1050.93974,44.2448721 C1057.25274,30.5818721 1063.57874,16.9258721 1069.87474,3.25487208 C1070.68774,1.49187208 1071.66274,0.130872075 1073.85374,0.0138720751 C1076.28874,-0.117127925 1077.89174,0.663872075 1078.96274,3.03187208 C1085.81574,18.1818721 1092.77874,33.2818721 1099.69874,48.4028721 C1111.18574,73.5038721 1122.66674,98.6088721 1134.14774,123.712872 C1134.49274,124.468872 1134.86274,125.220872 1135.11574,126.008872 C1135.90874,128.487872 1134.67174,130.388872 1132.06274,130.497872 C1129.31874,130.611872 1126.56574,130.522872 1123.81674,130.522872 L1123.81674,130.532872 Z"></path>
<path d="M955.944835,132.370942 C945.133835,132.357942 931.419835,128.695942 919.767835,118.907942 C916.366835,116.050942 916.284835,115.190942 918.515835,111.304942 C920.255835,108.274942 922.020835,105.257942 923.791835,102.245942 C925.995835,98.4989424 928.097835,98.0129424 931.723835,100.482942 C937.875835,104.674942 944.346835,108.228942 951.568835,110.194942 C956.573835,111.557942 961.585835,111.718942 966.456835,109.516942 C975.592835,105.387942 977.900835,94.6399424 971.316835,87.0799424 C966.687835,81.7639424 960.577835,78.7319424 954.272835,76.0799424 C946.895835,72.9769424 939.625835,69.7529424 933.145835,64.9379424 C923.195835,57.5439424 917.274835,48.0849424 917.339835,35.3509424 C917.412835,20.9389424 926.815835,7.58294243 940.553835,3.03194243 C958.485835,-2.90805757 975.334835,0.173942429 991.280835,9.70794243 C992.565835,10.4759424 993.838835,11.2749424 995.051835,12.1499424 C997.572835,13.9659424 997.995835,15.9749424 996.298835,18.6169424 C994.048835,22.1179424 991.747835,25.5899424 989.350835,28.9909424 C987.284835,31.9219424 985.138835,32.3099424 982.058835,30.4859424 C975.315835,26.4939424 968.526835,22.5759424 960.641835,21.3009424 C955.716835,20.5039424 950.996835,21.1669424 946.865835,24.2309424 C940.418835,29.0139424 939.564835,36.8339424 944.743835,43.0239424 C948.716835,47.7719424 954.094835,50.4279424 959.548835,52.9329424 C963.853835,54.9109424 968.442835,56.3519424 972.548835,58.6659424 C978.319835,61.9189424 984.265835,65.1699424 989.250835,69.4539424 C1006.96983,84.6799424 1005.06283,111.355942 985.734835,124.655942 C977.971835,129.997942 969.336835,132.150942 955.944835,132.370942"></path>
<path d="M1176.83763,108.59475 L1179.87763,108.59475 C1193.95663,108.59475 1208.03663,108.59275 1222.11563,108.59575 C1226.06163,108.59675 1227.14663,109.66475 1227.16363,113.60475 C1227.18163,117.85375 1227.20863,122.10275 1227.14963,126.35075 C1227.10763,129.35275 1225.86063,130.58075 1222.84363,130.58375 C1201.01663,130.60275 1179.18963,130.60175 1157.36263,130.58575 C1154.17363,130.58275 1153.00863,129.39575 1153.00763,126.19975 C1152.99763,86.29475 1152.99763,46.38975 1153.00663,6.48475 C1153.00763,3.06975 1154.05463,2.03775 1157.49563,2.01975 C1162.41063,1.99375 1167.32563,1.99275 1172.24163,2.02075 C1175.58363,2.03975 1176.72263,3.18075 1176.83063,6.51475 C1176.85463,7.26375 1176.83763,8.01375 1176.83763,8.76375 L1176.83763,104.98575 L1176.83763,108.59475"></path>
</svg>