<svg class="logo-instagram" xmlns="http://www.w3.org/2000/svg" width="1000px" height="282px" viewBox="0 0 1000 282" version="1.1"><path fill="#d5c1a5" d="M57.796346 0.497010281C48.6469496 0.497010281 36.7947774 10.1969722 29.7975913 16.6536031 14.4218003 30.3076258 0.4975 55.4033993 0.4975 75.5440838 0.4975 104.173486 24.8425024 114.974579 30.9988249 114.974579 33.0309119 114.974579 34.7626904 113.9235 34.7626904 111.170672 34.7626904 109.008452 33.391282 107.216612 32.0298838 105.36471 26.3940959 96.7458581 24.5822351 88.5174074 24.5822351 77.4260165 24.5822351 54.2922581 35.2531942 33.0904838 44.1022822 23.390522 45.7339579 21.6387229 49.4177412 17.8448265 50.5188721 17.8448265 51.6099926 17.8448265 51.8802702 18.7357415 51.8802702 21.4885687L50.8492113 172.884052C50.8492113 196.548355 44.0222 205.958019 44.0222 211.523735 44.0222 213.976254 45.0832897 214.606902 47.1053664 214.606902 56.6852049 214.606902 66.2450228 202.924904 68.9477986 198.670535 77.3364137 184.175649 79.3985315 172.864032 79.3985315 140.230517L79.3985315 13.009861C79.3985315 9.56632449 78.4275343 8.07479268 75.1641828 5.9526132 70.3792687 2.91949818 64.9036453 0.487 57.796346 0.487L57.796346 0.497010281ZM331.817767 0.917442065C327.31314 0.917442065 325.381156 3.269858 325.17094 10.5673525L324.169912 40.7583588 297.762792 39.8474232C296.161147 39.8073821 295.440407 40.3078961 294.739687 41.7193457 292.497385 45.9236636 291.316171 49.2170459 291.316171 54.7026796 291.316171 59.1672648 293.338248 59.6477582 295.150109 59.6477582L322.628329 60.4385704 322.548247 118.117807C322.548247 130.35037 314.83032 146.226675 301.126246 159.420225 301.126246 159.420225 302.307459 155.436133 302.237388 151.251836 302.237388 139.419684 294.619564 128.688663 284.469139 121.100871L259.683685 102.451718C264.87902 96.4455496 273.678057 84.5233055 273.678057 74.4529632 273.678057 66.6449444 268.77302 63.3715826 259.623623 63.3715826 246.710361 63.3715826 231.744992 75.193724 231.744992 92.7317355 231.744992 99.1283048 234.587911 104.874206 238.912353 109.278729 232.946225 120.610367 224.497549 135.505664 218.221103 146.116562 213.48624 154.24491 205.468005 166.687688 200.733142 166.687688 197.239555 166.687688 195.617889 161.192044 195.617889 140.060342 195.617889 122.50231 196.869174 103.422715 197.489812 85.0938915 197.489812 80.8995839 196.799102 77.015595 191.35351 73.2216987 186.338359 70.0083986 180.141995 65.5237929 173.765447 65.5237929 159.580879 65.5237929 149.920958 78.5771988 143.294152 91.3403065 136.43711 104.563887 132.723296 115.705329 127.49793 131.881943L128.078526 76.2247829C128.258711 72.2607118 127.257683 70.7191285 124.074414 69.3677407 119.960188 67.6159416 113.893958 65.6038752 108.518438 65.6038752 104.023822 65.6038752 103.473256 67.5358593 103.473256 72.2607118L102.872639 139.039294 102.802568 164.795745C102.802568 188.019596 105.715559 191.893575 119.489705 191.893575 127.117539 191.893575 129.560048 191.00266 129.710202 184.656142 129.920418 180.461835 131.922474 170.3014 134.63526 160.110934 142.573412 130.030041 151.973066 106.245614 168.18972 88.1069859 169.881458 86.3451765 171.182794 86.9758242 170.922527 89.4683841 170.922527 89.4683841 168.359895 130.180195 168.359895 146.827292 168.359895 176.437702 172.914573 191.893575 187.649706 191.893575 202.114561 191.893575 216.309139 173.314494 224.067106 160.771613L248.932643 119.168887C265.049195 132.902992 276.29074 143.54392 276.29074 156.497223 276.29074 164.545488 271.215528 172.423579 263.477581 172.423579 253.80765 172.423579 247.631307 162.233114 241.104604 162.233114 235.679032 162.233114 228.721887 172.693857 228.721887 178.639963 228.721887 184.245721 240.96446 192.183873 262.927016 192.183873 295.350314 192.183873 312.748182 169.931019 323.188905 145.285709 325.190961 174.535748 336.842927 191.613287 355.011587 191.613287 366.933831 191.613287 380.707977 176.547815 386.974413 158.158929 386.974413 158.158929 387.59505 162.933833 392.349933 172.723888 398.896657 185.497006 408.856886 191.37304 421.229593 191.37304 436.615394 191.37304 449.778913 182.043459 457.817168 166.38738 459.038423 178.249563 468.998652 191.312979 485.00509 191.312979 495.055412 191.312979 504.224829 183.605063 510.241008 170.922037 510.241008 170.922037 518.039016 191.873554 540.572158 191.873554 553.235163 191.873554 568.220553 180.151516 571.804233 171.622757L572.194634 184.015484 538.750287 214.857159C529.040315 224.286843 518.709705 237.830753 518.709705 252.826153 518.709705 271.895737 536.7182 282.867005 552.564474 282.867005 569.031386 282.867005 579.962612 272.436293 585.94876 263.687307 593.486501 252.37569 596.66977 231.043782 596.66977 210.202378L595.918999 178.86019C618.462151 154.084745 636.100265 119.839575 643.948325 95.6046861L661.055895 95.1542234C664.369298 94.9339973 664.209133 96.2353337 663.74866 98.1673179 660.745576 110.870364 658.112872 125.265147 658.112872 139.599869 658.112872 163.274183 663.568475 173.584772 671.406525 182.003418 678.223526 189.060666 685.000486 191.443112 692.137816 191.443112 706.092147 191.443112 714.851143 179.921279 717.62399 172.653816 724.170714 185.426934 733.830635 191.383051 746.193331 191.383051 761.579133 191.383051 774.742651 182.053469 782.780907 166.39739 784.002161 178.259573 793.96239 191.322989 809.968829 191.322989 821.931114 191.322989 828.868239 184.415895 834.333852 171.412541 834.443965 175.596838 834.604129 180.061423 834.724253 184.245721 834.864397 186.407941 836.596175 187.77935 838.147769 188.339925 843.232991 190.261899 847.697576 191.222886 851.711699 191.222886 862.172442 191.222886 864.444776 189.070676 864.444776 182.233654 864.444776 170.962078 864.775115 153.143779 867.978405 138.829078 871.3819 124.584448 876.517174 108.467897 883.594442 97.2463721 884.2351 96.0851795 885.796704 96.3954982 885.856766 97.7969375 886.877815 121.80159 888.479459 162.433319 894.785936 172.954124 897.899133 177.969275 902.714078 181.633037 909.91147 181.633037 913.284935 181.633037 917.429191 180.191557 918.490281 179.290632 919.561381 178.449768 920.101936 177.528822 920.041874 175.797044 920.041874 145.115534 929.611702 115.405021 939.191541 95.4345113 939.451808 94.8439047 940.202579 94.7938533 940.172548 95.5746552L939.642003 117.687365C939.642003 154.004663 942.264697 176.948226 960.403325 187.969545 963.176173 189.511128 967.080183 190.99265 972.075313 190.99265 981.354843 190.99265 989.773489 185.807324 993.927755 177.478771 997.32124 171.002119 1000.4945 158.52931 1000.4945 151.472062 1000.4945 148.739255 1000.52453 144.294691 996.039924 144.294691 993.577395 144.294691 992.105884 146.106552 991.515277 148.839358 990.083807 154.765444 988.912604 159.860677 986.700332 165.726702 984.578153 171.322448 981.414904 174.5858 977.671059 174.5858 973.266536 174.5858 971.034243 171.122243 969.752927 168.980043 964.13716 160.411243 963.686697 140.731031 963.686697 124.29415L965.038085 82.0007148C965.038085 78.5071268 963.576584 74.3128193 958.181043 71.2296529 954.557322 69.1475145 945.387905 65.2134742 939.772137 65.2134742 934.566791 65.2134742 932.0442 68.166507 930.172278 72.4909482 926.648659 80.2689362 914.866559 110.770261 911.713321 135.565726 911.603208 136.216394 910.782365 136.356538 910.732313 135.525685 909.090627 117.987673 908.249764 96.8659814 908.269784 82.6013316 908.269784 78.2969109 907.218705 72.1305781 898.079318 68.1364762 893.634754 66.2945845 889.960981 65.1634228 885.476375 65.1634228 879.910659 65.1634228 878.709426 67.8862191 876.71738 71.4999304 870.410903 83.151897 866.046421 98.347503 859.509707 117.51719L859.60981 73.6521408C859.60981 71.6000332 858.348515 68.9072678 854.754824 68.1865276 845.825654 66.13442 841.691408 65.203464 838.167789 65.203464 835.605157 65.203464 834.193708 67.2455612 834.193708 69.4578332L833.713214 144.244639C831.981436 153.404046 824.98425 175.256489 815.054051 175.256489 806.905683 175.256489 803.101776 166.998007 803.101776 132.472549L804.583298 76.3649268C804.583298 72.8212875 802.260913 71.3297557 798.867428 69.8282136 794.022452 67.9062397 790.158484 67.1354481 785.233426 67.1354481 779.047072 67.1354481 776.924893 70.0984912 778.176178 77.2057904 771.379197 68.0063425 764.582217 62.9311303 752.57989 62.9311303 728.475135 62.9311303 710.306475 91.9309131 710.306475 134.064184 710.066229 145.876315 712.929169 157.628385 712.929169 157.628385 710.746928 167.43846 705.621664 175.426663 698.534385 175.426663 689.595205 175.426663 683.899355 162.793689 683.899355 140.901206 683.899355 118.93865 692.26795 94.1732159 692.26795 87.4563177 692.26795 79.6482988 687.152696 74.7132305 678.103403 74.7132305 673.568746 74.7132305 656.751474 78.5271474 648.122612 79.7784325 648.122612 79.7784325 649.09361 75.6742174 649.023538 72.4408968 649.023538 64.742991 645.409826 59.9180358 636.450625 59.9180358 625.499378 59.9180358 617.451113 67.7360649 617.451113 81.079769 617.451113 87.0659167 620.894649 92.6016019 625.459337 95.5846655 619.533251 120.300048 609.903361 138.678923 595.708783 159.210009L596.910017 76.0646184C596.910017 73.3618426 596.189277 71.6801155 590.893838 69.628008 588.09096 68.416764 583.536282 67.025335 577.780371 67.025335 569.451817 67.025335 569.992372 72.981452 570.442835 77.4360268 566.628918 70.6790874 558.280344 62.6508424 545.407123 62.6508424 510.31108 62.6508424 499.540018 116.165802 504.825446 154.174838 504.825446 158.809598 500.300799 175.256489 490.080303 175.256489 481.931934 175.256489 478.128028 166.998007 478.128028 132.472549L479.619559 76.3649268C479.619559 72.8212875 477.277154 71.3297557 473.883669 69.8282136 469.038693 67.9062397 465.194745 67.1354481 460.269687 67.1354481 454.083334 67.1354481 451.961154 70.0984912 453.212439 77.2057904 446.415459 68.0063425 439.608468 62.9311303 427.596131 62.9311303 403.491376 62.9311303 385.08247 89.4483635 385.08247 131.581634 385.08247 147.668155 371.238252 172.213363 361.518269 172.213363 356.122728 172.213363 350.376827 162.313196 350.376827 137.007207 350.406858 119.759493 352.759274 61.0491975 352.759274 61.0491975L386.654084 60.4986321C388.275749 60.4886218 389.206705 58.7168021 389.807322 57.6256816 391.368926 54.4724432 392.119697 52.360274 392.119697 48.5863982 392.119697 45.1728925 391.438998 43.9316177 387.064505 43.6813607L353.279808 41.6492737 354.711278 10.1769516C354.811381 8.18490577 353.610147 6.89357957 351.447927 5.92258235 344.901203 3.36996081 336.882969 0.897421504 331.807756 0.897421504L331.817767 0.917442065ZM434.403122 83.3821335C443.442405 83.3821335 452.611822 91.6306047 452.611822 120.870634 452.611822 157.688446 439.198046 174.816036 428.887457 174.816036 419.217526 174.816036 411.879991 161.172024 411.879991 134.354482 411.879991 107.256653 419.047352 83.3821335 434.413132 83.3821335L434.403122 83.3821335ZM759.867375 83.3821335C768.906658 83.3821335 778.076075 91.6306047 778.076075 120.870634 778.076075 157.688446 764.662299 174.816036 754.35171 174.816036 744.681779 174.816036 737.344243 161.172024 737.344243 134.354482 737.344243 107.256653 744.511604 83.3821335 759.877385 83.3821335L759.867375 83.3821335ZM553.435368 83.5523083C565.227479 83.5523083 570.442835 95.7047889 570.442835 119.279 570.442835 154.815496 559.881989 175.046273 547.048809 175.046273 538.8604 175.046273 529.440726 161.602466 529.94124 135.155305 529.94124 118.247941 535.456904 83.5623185 553.425358 83.5623185L553.435368 83.5523083ZM573.405878 202.42439L573.405878 216.418762C573.405878 262.866464 561.033171 270.794607 551.082952 270.794607 547.319087 270.794607 538.089608 267.951687 538.089608 256.459885 538.089608 240.393384 554.886859 222.124622 560.102215 216.478824L573.405878 202.42439 573.405878 202.42439Z"/></svg>