<svg xmlns="http://www.w3.org/2000/svg" width="200" height="100" viewBox="0 0 200 100"><path d="M50 6c24.3 0 44 19.7 44 44S74.3 94 50 94 6 74.3 6 50 25.7 6 50 6m0-6C22.4 0 0 22.4 0 50s22.4 50 50 50 50-22.4 50-50S77.6 0 50 0zM150 6c24.3 0 44 19.7 44 44s-19.7 44-44 44-44-19.7-44-44 19.7-44 44-44m0-6c-27.6 0-50 22.4-50 50s22.4 50 50 50 50-22.4 50-50-22.4-50-50-50z" fill="#DDCAB3"/><path fill="none" stroke="#DDCAB3" stroke-width="6" stroke-miterlimit="10" d="M23.9 50h52.2M50 76.1V23.9M123.9 50h52.2"/></svg>